<?xml version="1.0" standalone="no"?>
<!DOCTYPE svg PUBLIC "-//W3C//DTD SVG 20010904//EN"
 "http://www.w3.org/TR/2001/REC-SVG-20010904/DTD/svg10.dtd">
<svg version="1.0" xmlns="http://www.w3.org/2000/svg"
 width="268.000000pt" height="268.000000pt" viewBox="0 0 268.000000 268.000000"
 preserveAspectRatio="xMidYMid meet">
<metadata>
Created by potrace 1.11, written by Peter Selinger 2001-2013
</metadata>
<g transform="translate(0.000000,268.000000) scale(0.100000,-0.100000)"
fill="#000000" stroke="none">
<path d="M1074 2643 c3 -21 12 -101 21 -178 8 -77 17 -153 20 -168 3 -15 1
-26 -3 -23 -5 3 -9 -1 -9 -9 0 -8 3 -12 7 -10 3 2 12 0 20 -5 9 -5 -3 -8 -33
-6 -36 2 -52 -3 -72 -20 -16 -13 -21 -24 -14 -26 7 -2 -2 -17 -22 -36 -19 -18
-39 -30 -46 -28 -7 3 -10 -1 -7 -8 6 -15 -21 -46 -41 -46 -11 0 -40 -52 -40
-74 0 -5 -7 -11 -15 -13 -13 -4 -13 -3 0 6 8 6 10 11 4 11 -6 0 -22 -16 -35
-35 -13 -19 -29 -33 -36 -31 -12 5 -88 -63 -79 -71 3 -3 -3 -13 -13 -22 -10
-9 -24 -36 -30 -60 -7 -24 -23 -53 -35 -65 -40 -37 -50 -67 -47 -141 1 -39 -3
-83 -8 -99 -9 -23 -23 -211 -24 -316 -1 -118 19 -242 40 -251 5 -2 17 -32 26
-67 25 -90 20 -94 -124 -116 -66 -9 -137 -23 -159 -31 l-41 -14 -67 64 c-113
108 -126 118 -130 106 -2 -6 5 -26 16 -43 11 -18 25 -58 30 -88 13 -64 12
-145 -1 -127 -5 7 -6 -4 -2 -25 3 -23 1 -39 -6 -43 -8 -5 -9 -1 -4 15 5 15 4
20 -4 16 -16 -10 -13 -46 4 -52 24 -10 17 -19 -15 -20 -17 -1 -30 2 -30 7 0 5
5 9 11 9 5 0 8 4 4 10 -4 6 -16 5 -33 -1 -20 -8 -24 -7 -16 1 6 6 20 12 31 12
10 1 20 9 20 18 1 8 2 20 3 25 5 25 -1 33 -23 28 l-22 -5 22 16 c18 13 21 23
16 54 -3 20 -9 42 -13 47 -3 6 -8 30 -9 55 -4 86 -24 148 -51 165 -7 4 -10
-146 -9 -464 l0 -471 185 0 c145 0 184 3 178 13 -6 10 -4 10 7 0 19 -19 1745
-19 1752 0 4 9 6 9 6 0 1 -10 63 -13 276 -13 l275 0 0 306 c0 204 -3 303 -10
299 -6 -4 -8 -11 -5 -16 4 -5 -1 -9 -10 -9 -9 0 -13 5 -10 10 3 6 2 10 -3 10
-6 0 -14 12 -19 28 -8 22 -6 31 12 49 15 14 26 18 32 12 7 -7 10 5 10 33 1 37
-22 109 -57 183 -6 11 -21 49 -34 85 -48 129 -59 151 -68 138 -6 -8 -7 -5 -3
11 8 26 -22 104 -36 95 -5 -3 -6 1 -3 9 3 8 -2 30 -10 48 -11 25 -14 27 -10 9
l5 -25 -15 25 c-9 14 -21 41 -27 60 -6 19 -21 55 -32 80 -11 25 -20 60 -20 79
1 19 -2 29 -6 23 -9 -15 0 -34 -206 483 -92 231 -173 434 -180 450 -7 17 -29
68 -48 115 l-36 85 -200 3 c-157 2 -201 0 -201 -10 0 -7 12 -56 26 -108 117
-437 145 -555 134 -558 -5 -2 -8 -8 -4 -13 3 -5 -1 -18 -9 -30 -9 -13 -17 -16
-22 -10 -3 6 -1 11 4 11 6 0 11 5 11 11 0 5 -4 8 -9 4 -5 -3 -12 -1 -16 5 -4
6 -9 8 -13 6 -4 -2 -8 14 -10 36 -4 54 -12 65 -30 42 -14 -18 -14 -18 -7 1 17
44 15 64 -9 164 -21 82 -23 106 -14 113 9 5 8 8 -4 8 -11 0 -18 8 -18 21 0 11
-11 59 -24 107 -13 48 -29 113 -36 145 l-11 57 -181 0 -180 0 6 -37z m202
-415 c4 -7 3 -8 -4 -4 -7 4 -12 2 -12 -5 0 -7 -3 -10 -6 -6 -6 5 3 27 11 27 2
0 7 -5 11 -12z m61 -10 c-3 -8 -6 -5 -6 6 -1 11 2 17 5 13 3 -3 4 -12 1 -19z
m-122 2 c-3 -5 -11 -10 -16 -10 -6 0 -7 5 -4 10 3 6 11 10 16 10 6 0 7 -4 4
-10z m157 -42 c-7 -7 -12 -8 -12 -2 0 6 3 14 7 17 3 4 9 5 12 2 2 -3 -1 -11
-7 -17z m-406 -66 c-18 -16 -18 -16 -6 6 6 13 14 21 18 18 3 -4 -2 -14 -12
-24z m310 -76 c10 -8 29 -12 42 -9 16 4 22 1 22 -11 0 -9 3 -15 8 -14 14 3 68
-16 125 -44 62 -31 105 -71 170 -158 54 -73 67 -86 67 -68 1 7 16 -5 35 -26
19 -22 33 -41 30 -44 -2 -2 -16 9 -30 26 -14 17 -32 29 -38 26 -7 -2 -32 2
-55 10 -45 16 -251 41 -260 31 -3 -3 6 -6 19 -6 13 -1 2 -5 -26 -9 -35 -5 -71
-1 -120 11 l-70 18 85 -4 85 -4 -70 9 c-210 26 -344 33 -392 22 -29 -7 -43 -7
-43 0 0 6 -7 8 -15 4 -8 -3 -29 0 -47 6 l-32 11 49 44 c27 24 57 43 67 43 9 0
23 8 30 18 14 19 63 45 91 48 20 2 36 14 19 14 -7 0 -12 6 -12 14 0 8 8 15 18
15 9 0 35 4 57 10 51 13 118 14 131 1 7 -7 17 -5 30 6 17 14 17 15 1 10 -11
-3 -16 -2 -12 4 8 14 18 13 41 -4z m34 4 c0 -5 -5 -10 -11 -10 -5 0 -7 5 -4
10 3 6 8 10 11 10 2 0 4 -4 4 -10z m360 -114 c-17 -22 -32 -9 -18 14 8 12 16
16 22 10 6 -6 4 -15 -4 -24z m26 -66 c5 -26 4 -32 -4 -25 -7 6 -15 26 -18 45
-5 26 -4 32 4 25 7 -6 15 -26 18 -45z m-956 -11 c0 -18 -18 -9 -23 12 -4 16
-3 18 9 8 8 -6 14 -15 14 -20z m-44 -18 c0 -11 -5 -17 -13 -14 -14 6 -17 16
-6 26 11 12 19 7 19 -12z m1034 -36 c0 -8 -3 -16 -7 -18 -5 -3 -8 5 -8 18 0
13 3 21 8 18 4 -2 7 -10 7 -18z m-1127 -127 c-3 -15 -12 -29 -20 -32 -8 -3
-12 -2 -11 2 32 66 39 74 31 30z m1195 -49 c-3 -8 -7 -3 -11 10 -4 17 -3 21 5
13 5 -5 8 -16 6 -23z m-480 0 c9 -12 23 -28 31 -36 10 -11 12 -20 5 -31 -8
-12 -4 -27 12 -56 12 -23 25 -55 29 -73 6 -32 45 -58 53 -35 2 7 15 6 38 -4
36 -15 62 -15 79 -1 6 5 37 23 70 40 33 18 64 42 70 55 5 12 13 22 17 22 7 0
17 -66 16 -105 -1 -65 17 -151 35 -165 18 -15 19 -18 4 -66 -16 -48 -16 -48
-14 -12 2 56 -10 55 -22 -2 -14 -64 -14 -65 3 -51 12 10 15 3 20 -36 3 -26 4
-73 1 -103 -2 -30 -4 -58 -5 -61 0 -11 -50 -5 -50 6 -1 22 -18 -22 -25 -62 -4
-24 -10 -43 -14 -43 -3 0 -15 11 -25 25 -10 14 -25 25 -32 25 -8 0 -12 15 -11
48 1 26 4 49 7 52 3 3 11 19 18 35 10 24 10 27 0 15 -7 -8 -18 -16 -23 -17 -6
-1 -19 -5 -29 -9 -15 -6 -17 -4 -11 6 13 21 5 141 -11 172 -9 18 -39 40 -85
63 l-71 35 41 -47 41 -48 -21 -17 c-26 -22 -43 -23 -60 -2 -8 9 -31 27 -51 40
-21 14 -38 29 -38 34 0 10 60 45 73 42 4 -1 2 7 -5 17 -9 15 -9 24 4 42 13 20
13 29 1 67 -14 50 -31 74 -44 66 -5 -2 -20 3 -33 12 -14 9 -42 20 -63 24 -31
7 -41 6 -58 -10 -21 -19 -21 -19 -22 3 -2 17 0 19 7 7 9 -14 11 -10 10 15 -1
3 6 13 15 22 12 11 13 19 6 26 -17 17 -13 27 10 24 16 -1 22 4 24 21 2 23 30
51 53 52 7 0 20 -10 30 -21z m92 -109 c0 -5 -2 -10 -4 -10 -3 0 -8 5 -11 10
-3 6 -1 10 4 10 6 0 11 -4 11 -10z m205 -30 c3 -5 2 -10 -4 -10 -5 0 -13 5
-16 10 -3 6 -2 10 4 10 5 0 13 -4 16 -10z m172 -22 c-3 -8 -6 -5 -6 6 -1 11 2
17 5 13 3 -3 4 -12 1 -19z m-633 -33 c-7 -16 -24 -21 -24 -6 0 8 7 13 27 20 1
1 0 -6 -3 -14z m-99 -40 c-5 -2 -54 -11 -108 -21 -66 -12 -94 -20 -85 -27 9
-6 8 -7 -5 -3 -10 3 -27 1 -38 -4 -13 -7 -19 -7 -19 -1 0 14 49 39 97 50 35 8
181 14 158 6z m748 -82 c-4 -23 -2 -25 7 -13 9 12 10 9 8 -14 -2 -19 -9 -30
-21 -32 -15 -2 -18 2 -13 19 3 12 6 32 6 45 0 12 4 22 9 22 4 0 6 -12 4 -27z
m-733 -14 c0 -29 -22 -49 -53 -49 l-32 1 35 29 c36 32 50 37 50 19z m749 -90
c-9 -17 -7 -25 12 -45 16 -17 18 -24 8 -24 -22 0 -37 13 -39 35 -4 39 0 55 15
55 13 0 14 -4 4 -21z m681 -14 c0 -5 -5 -3 -10 5 -5 8 -10 20 -10 25 0 6 5 3
10 -5 5 -8 10 -19 10 -25z m-663 -6 c2 -16 -1 -19 -9 -11 -5 5 -7 15 -4 21 10
15 12 14 13 -10z m-458 -104 c62 -32 104 -96 98 -150 -3 -20 -1 -37 3 -40 10
-6 12 -125 3 -126 -4 0 -16 -2 -26 -4 -10 -2 -27 6 -39 18 -13 15 -22 18 -25
10 -2 -7 -11 -9 -19 -6 -7 3 -12 8 -9 13 2 4 -7 5 -20 2 -14 -2 -25 0 -25 6 0
8 -47 23 -85 26 -5 1 -20 7 -32 13 -25 15 -21 53 6 53 24 0 123 38 138 53 7 7
17 27 22 44 11 38 -4 55 -66 74 -41 12 -57 33 -30 42 17 6 66 -7 106 -28z
m474 -24 c-2 -26 -1 -31 5 -17 8 19 9 19 14 -2 5 -17 2 -22 -12 -22 -21 0 -33
25 -24 53 4 13 2 17 -5 13 -12 -8 -14 -4 -5 18 10 27 30 -4 27 -43z m706 -21
c0 -9 -6 -4 -14 10 -8 14 -14 32 -14 40 0 9 6 4 14 -10 8 -14 14 -32 14 -40z
m66 -170 c24 -63 43 -116 41 -118 -2 -2 -23 45 -46 105 -53 135 -55 139 -47
132 4 -3 27 -57 52 -119z m-716 45 c0 -5 -4 -3 -9 5 -5 8 -9 22 -9 30 0 16 17
-16 18 -35z m-334 -65 c-3 -5 -10 -10 -16 -10 -5 0 -9 5 -9 10 0 6 7 10 16 10
8 0 12 -4 9 -10z m347 -22 c-6 -6 -15 -8 -19 -4 -4 4 -1 11 7 16 19 12 27 3
12 -12z m-367 2 c9 -15 -6 -60 -21 -60 -15 0 -18 27 -8 54 7 18 20 21 29 6z
m48 -6 c8 -8 -3 -34 -14 -34 -5 0 -9 9 -9 20 0 19 11 26 23 14z m339 -49 c6
-28 -6 -34 -16 -9 -5 14 0 34 8 34 2 0 6 -11 8 -25z m-1747 -98 c-20 -11 -20
-28 0 -21 11 5 14 2 9 -12 -6 -18 -6 -18 8 -1 13 17 15 17 27 3 9 -11 10 -16
2 -16 -6 0 -11 -4 -11 -9 0 -5 9 -7 20 -4 14 4 20 0 20 -11 0 -9 6 -16 14 -16
8 0 16 -4 18 -8 2 -5 20 -20 41 -34 l38 -26 -36 -6 c-20 -4 -44 -10 -52 -13
-13 -5 -15 -2 -11 15 4 12 5 22 3 22 -13 0 -35 -14 -35 -22 0 -5 4 -7 9 -4 4
3 7 -10 5 -29 -3 -39 7 -45 27 -16 18 25 61 39 53 17 -3 -9 -10 -13 -15 -10
-5 3 -9 1 -9 -5 0 -5 5 -13 11 -16 5 -4 7 -19 4 -35 -4 -20 -2 -29 9 -33 9 -4
13 -13 10 -22 -9 -22 -24 -19 -24 5 0 11 -4 20 -10 20 -17 0 -11 -35 11 -58
11 -13 19 -28 16 -35 -2 -7 -18 11 -35 38 -24 38 -29 52 -19 60 16 13 20 42 7
50 -9 5 -15 -15 -11 -38 1 -5 -3 -7 -9 -5 -7 2 -12 8 -12 13 0 6 -5 16 -11 24
-6 7 -11 22 -12 32 0 33 -17 25 -31 -13 -10 -30 -10 -39 1 -48 8 -7 15 -7 19
-1 4 5 2 12 -4 16 -5 3 -10 13 -10 22 0 13 3 13 15 3 8 -7 15 -21 15 -31 0
-11 5 -19 10 -19 6 0 10 -8 10 -19 0 -10 7 -24 15 -31 8 -7 15 -17 15 -23 0
-6 8 -19 18 -30 16 -19 16 -20 -1 -10 -18 9 -36 35 -56 81 -16 35 -26 26 -26
-22 0 -33 -3 -42 -11 -35 -8 6 -13 3 -17 -12 -4 -16 -2 -19 11 -14 9 3 13 3 9
-1 -4 -4 1 -17 10 -28 17 -20 17 -20 1 -7 -11 8 -18 9 -18 3 0 -6 5 -14 10
-17 6 -3 10 -11 10 -18 0 -6 -6 -2 -14 8 -12 17 -16 17 -30 6 -9 -8 -19 -11
-23 -7 -3 3 -1 6 6 6 7 0 9 5 6 10 -3 5 1 10 9 10 8 0 18 4 21 10 4 6 -1 7
-12 3 -10 -3 -15 -3 -11 2 4 4 0 14 -10 22 -16 12 -16 13 2 6 15 -5 18 -3 13
10 -3 9 -1 19 4 23 7 4 7 10 0 17 -6 6 -11 19 -11 29 0 10 -6 18 -14 18 -8 0
-18 5 -22 12 -4 7 -3 8 4 4 7 -4 12 -1 13 6 0 10 2 10 6 1 10 -27 18 -11 17
35 -2 88 -4 103 -14 97 -7 -4 -9 3 -5 22 5 21 4 24 -4 13 -7 -9 -11 -10 -11
-3 0 6 4 14 8 17 5 3 8 29 7 58 -3 63 3 78 22 52 11 -15 11 -19 -2 -27z m1753
29 c-7 -8 -17 -12 -22 -9 -4 3 -2 9 5 14 22 13 31 11 17 -5z m-11 -58 c-3 -8
-6 -5 -6 6 -1 11 2 17 5 13 3 -3 4 -12 1 -19z m30 0 c-3 -8 -6 -5 -6 6 -1 11
2 17 5 13 3 -3 4 -12 1 -19z m638 -19 c-3 -4 1 -9 7 -12 10 -3 8 -10 -6 -26
-24 -26 -46 -27 -46 -1 0 11 6 19 13 18 8 -2 11 9 10 32 -1 32 0 33 13 16 7
-10 11 -22 9 -27z m-2535 21 c0 -5 -5 -10 -11 -10 -5 0 -7 5 -4 10 3 6 8 10
11 10 2 0 4 -4 4 -10z m1885 -29 c3 -5 1 -12 -5 -16 -5 -3 -10 1 -10 9 0 18 6
21 15 7z m-1895 -31 c0 -5 -5 -10 -11 -10 -5 0 -7 5 -4 10 3 6 8 10 11 10 2 0
4 -4 4 -10z m2489 -28 c7 -24 6 -34 -6 -44 -18 -15 -18 -15 -38 6 -21 21 -19
42 7 60 26 18 26 18 37 -22z m-2479 -2 c-8 -5 -17 -7 -19 -4 -3 3 1 9 9 14 8
5 17 7 19 4 3 -3 -1 -9 -9 -14z m1907 4 c-3 -3 -12 -4 -19 -1 -8 3 -5 6 6 6
11 1 17 -2 13 -5z m14 -89 l-10 -40 2 49 c1 36 -2 50 -13 53 -9 3 -11 1 -4 -4
6 -5 7 -18 3 -33 -6 -23 -7 -23 -8 -3 -1 12 -4 28 -7 37 -4 12 0 16 15 16 12
0 22 6 23 13 0 6 3 -1 5 -18 2 -16 -1 -48 -6 -70z m492 38 c-6 -14 -32 -25
-44 -17 -5 3 -9 13 -9 22 0 15 2 15 10 2 8 -12 10 -11 10 7 0 12 6 23 13 26
13 4 27 -21 20 -40z m-76 -15 c-3 -8 -6 -5 -6 6 -1 11 2 17 5 13 3 -3 4 -12 1
-19z m-2357 -1 c0 -8 -6 -14 -14 -14 -8 0 -12 6 -9 14 3 7 9 13 14 13 5 0 9
-6 9 -13z m131 -30 c-8 -8 -11 -7 -11 4 0 20 13 34 18 19 3 -7 -1 -17 -7 -23z
m-59 16 c-6 -3 -10 -8 -7 -13 3 -4 -2 -7 -11 -6 -11 1 -17 -9 -20 -29 -2 -16
-7 -31 -13 -33 -5 -2 -7 -12 -4 -22 3 -11 1 -20 -5 -20 -6 0 -8 10 -6 23 12
70 17 87 26 87 5 0 7 4 4 9 -3 5 7 8 22 8 15 0 21 -2 14 -4z m248 -23 c-8 -5
-17 -7 -19 -4 -3 3 1 9 9 14 8 5 17 7 19 4 3 -3 -1 -9 -9 -14z m1637 -2 c-3
-8 -6 -5 -6 6 -1 11 2 17 5 13 3 -3 4 -12 1 -19z m-1967 3 c0 -6 -4 -13 -10
-16 -5 -3 -10 1 -10 9 0 9 5 16 10 16 6 0 10 -4 10 -9z m420 -36 c7 -8 8 -15
3 -15 -6 0 -8 -11 -6 -24 3 -13 0 -27 -6 -30 -6 -4 -11 -12 -11 -17 0 -6 4 -8
9 -5 17 11 19 -22 3 -38 -16 -14 -18 -10 -18 64 0 82 4 91 26 65z m-46 -6 c3
-3 -8 -10 -24 -16 -27 -10 -30 -9 -30 8 0 15 6 19 25 16 13 -1 26 -5 29 -8z
m1616 -19 c0 -5 -12 -10 -27 -9 -25 0 -26 1 -8 9 27 12 35 12 35 0z m250 -19
c0 -17 -5 -33 -12 -37 -8 -5 -9 -2 -5 9 3 10 2 17 -2 17 -5 0 -7 9 -4 20 8 30
23 24 23 -9z m-2176 4 c-4 -8 -10 -12 -15 -9 -11 6 -2 24 11 24 5 0 7 -7 4
-15z m2418 -66 l-18 -42 -13 30 c-16 40 1 82 25 62 12 -10 13 -9 8 7 -5 17 -4
17 5 2 8 -12 6 -27 -7 -59z m-2102 47 c0 -8 -4 -18 -10 -21 -5 -3 -10 -4 -10
-1 0 2 -3 11 -6 20 -4 11 -1 16 10 16 9 0 16 -6 16 -14z m69 -35 c1 -10 -2
-11 -13 -2 -8 7 -12 21 -8 33 5 21 6 21 13 2 4 -10 8 -25 8 -33z m1551 45 c0
-2 -6 -18 -14 -36 -13 -33 -34 -26 -22 7 4 9 1 20 -6 25 -9 5 -4 8 15 8 15 0
27 -2 27 -4z m530 -6 c0 -5 -4 -10 -10 -10 -5 0 -10 5 -10 10 0 6 5 10 10 10
6 0 10 -4 10 -10z m-2425 -9 c-3 -6 3 -14 12 -20 10 -6 14 -10 8 -11 -19 0
-38 18 -31 29 4 6 9 11 12 11 3 0 3 -4 -1 -9z m125 -46 c0 -8 8 -20 19 -27 11
-8 18 -23 17 -38 -1 -14 2 -33 6 -42 5 -11 5 -18 -2 -18 -5 0 -10 7 -10 16 0
11 -6 14 -22 8 -21 -6 -21 -6 -5 10 20 20 22 42 5 52 -6 4 -8 3 -4 -4 3 -6 2
-13 -4 -17 -6 -3 -13 1 -17 10 -3 10 0 21 7 25 8 5 9 9 1 14 -6 4 -11 14 -11
22 0 8 5 12 10 9 6 -3 10 -12 10 -20z m120 -1 c0 -8 -4 -12 -10 -9 -5 3 -10
10 -10 16 0 5 5 9 10 9 6 0 10 -7 10 -16z m2084 0 c4 -10 2 -13 -7 -8 -6 4 -3
-2 7 -14 17 -19 17 -22 3 -22 -10 0 -17 -4 -17 -8 0 -17 -30 -8 -36 10 -13 43
34 84 50 42z m-2424 -10 c0 -8 -5 -12 -10 -9 -6 4 -8 11 -5 16 9 14 15 11 15
-7z m1981 -11 c-12 -20 -14 -14 -5 12 4 9 9 14 11 11 3 -2 0 -13 -6 -23z
m-1532 -37 l-2 -41 -6 35 c-3 19 -12 36 -20 38 -9 2 -11 -3 -7 -13 3 -9 2 -13
-4 -10 -6 3 -10 2 -10 -4 0 -6 -7 -8 -15 -5 -11 4 -8 11 13 29 36 31 52 22 51
-29z m1558 32 c-3 -8 -6 -5 -6 6 -1 11 2 17 5 13 3 -3 4 -12 1 -19z m339 -83
c-21 -20 -25 -20 -29 -6 -3 9 -10 31 -16 49 -9 29 -7 33 17 46 27 14 27 14 39
-26 12 -38 11 -42 -11 -63z m-2239 76 c0 -11 -5 -18 -9 -15 -4 3 -5 11 -1 19
7 21 12 19 10 -4z m-121 -13 c4 -7 3 -8 -4 -4 -7 4 -12 2 -12 -5 0 -7 -3 -10
-6 -6 -6 5 3 27 11 27 2 0 7 -5 11 -12z m310 -13 c9 -8 11 -15 6 -15 -5 0 -15
7 -22 15 -7 8 -9 15 -6 15 4 0 14 -7 22 -15z m119 -33 c20 -14 20 -14 -2 -7
-18 5 -21 3 -18 -14 2 -11 0 -23 -5 -26 -5 -3 -7 3 -5 13 2 15 -2 18 -20 15
-12 -3 -26 0 -29 6 -5 7 -1 9 8 5 9 -3 16 -1 16 5 0 6 7 8 17 4 11 -4 14 -3 9
5 -4 7 -18 12 -32 12 -14 0 -24 6 -24 14 0 12 5 12 33 -1 17 -9 41 -23 52 -31z
m1875 34 c0 -8 3 -21 6 -29 3 -9 -3 -16 -15 -20 -25 -6 -39 27 -21 48 16 19
30 19 30 1z m-1996 -42 c3 -8 2 -12 -4 -9 -6 3 -10 10 -10 16 0 14 7 11 14 -7z
m-129 -4 c3 -5 1 -10 -4 -10 -6 0 -11 5 -11 10 0 6 2 10 4 10 3 0 8 -4 11 -10z
m272 -32 c-3 -8 -6 -5 -6 6 -1 11 2 17 5 13 3 -3 4 -12 1 -19z m-382 -7 c3 -5
2 -12 -3 -15 -5 -3 -9 1 -9 9 0 17 3 19 12 6z m97 2 c-6 -2 -9 -10 -6 -15 4
-7 2 -8 -5 -4 -13 9 -5 26 12 25 9 0 8 -2 -1 -6z m59 -2 c6 10 8 7 6 -9 0 -12
-5 -22 -9 -22 -4 0 -8 2 -8 4 0 2 -2 10 -3 18 -2 7 -2 9 1 4 2 -4 8 -2 13 5z
m209 -17 c0 -8 -5 -12 -10 -9 -6 4 -8 11 -5 16 9 14 15 11 15 -7z m1957 0 c-3
-3 -12 -4 -19 -1 -8 3 -5 6 6 6 11 1 17 -2 13 -5z m-1987 -14 c0 -5 -2 -10 -4
-10 -3 0 -8 5 -11 10 -3 6 -1 10 4 10 6 0 11 -4 11 -10z m1634 -31 c-8 -13
-21 -11 -27 5 -4 10 0 12 14 9 10 -3 16 -9 13 -14z"/>
<path d="M955 1920 c-3 -5 -3 -14 0 -20 3 -6 -1 -7 -9 -4 -10 4 -17 1 -17 -7
-4 -45 -7 -57 -13 -68 -6 -8 0 -10 21 -6 49 11 55 15 49 30 -3 8 0 15 6 15 6
0 19 10 30 22 22 25 10 38 -29 30 -18 -3 -24 -1 -19 7 4 6 3 11 -3 11 -5 0
-13 -4 -16 -10z"/>
<path d="M1723 1038 c-2 -16 1 -18 10 -9 7 7 8 14 1 21 -6 6 -10 2 -11 -12z"/>
<path d="M223 534 c-7 -3 -9 -12 -6 -21 5 -12 3 -14 -7 -8 -9 5 -11 4 -6 -4 9
-14 26 -5 26 14 0 7 8 16 18 18 11 3 12 5 2 5 -8 0 -20 -2 -27 -4z"/>
<path d="M203 365 c0 -13 5 -26 12 -28 8 -4 10 3 7 19 -6 33 -19 39 -19 9z"/>
<path d="M2430 1365 c0 -5 5 -17 10 -25 5 -8 10 -10 10 -5 0 6 -5 17 -10 25
-5 8 -10 11 -10 5z"/>
</g>
</svg>
